<?xml version="1.0" standalone="no"?>
<!DOCTYPE svg PUBLIC "-//W3C//DTD SVG 20010904//EN"
 "http://www.w3.org/TR/2001/REC-SVG-20010904/DTD/svg10.dtd">
<svg version="1.0" xmlns="http://www.w3.org/2000/svg"
 width="400.000000pt" height="400.000000pt" viewBox="0 0 400.000000 400.000000"
 preserveAspectRatio="xMidYMid meet">
<metadata>
Created by potrace 1.11, written by Peter Selinger 2001-2013
</metadata>
<g transform="translate(0.000000,400.000000) scale(0.100000,-0.100000)"
fill="#000000" stroke="none">
<path d="M599 3996 c-2 -3 -24 -7 -49 -9 -25 -3 -44 -9 -43 -14 1 -6 -9 -9
-22 -7 -14 1 -25 -2 -25 -7 0 -5 -7 -9 -15 -9 -8 0 -34 -11 -58 -25 -25 -13
-48 -21 -52 -17 -5 4 -6 3 -3 -3 7 -11 -17 -37 -26 -28 -3 3 -8 -2 -12 -11 -3
-9 -10 -14 -14 -11 -5 3 -11 -4 -15 -15 -3 -11 -9 -19 -13 -17 -8 2 -52 -39
-47 -45 1 -1 -7 -12 -18 -23 -11 -11 -16 -14 -12 -6 6 10 4 12 -4 7 -7 -5 -10
-10 -7 -13 3 -3 -8 -25 -24 -48 -16 -23 -26 -45 -23 -49 4 -3 1 -6 -5 -6 -7 0
-12 -9 -12 -21 0 -13 -4 -18 -12 -13 -8 5 -9 2 -5 -9 3 -10 3 -17 -2 -17 -4 0
-8 -6 -9 -12 -1 -16 -10 -53 -12 -53 -13 0 -24 -2939 -12 -2960 4 -5 8 -21 9
-35 2 -14 4 -30 5 -37 1 -7 8 -15 15 -17 11 -4 11 -10 3 -26 -8 -16 -8 -22 4
-26 13 -5 30 -39 27 -57 -1 -4 4 -7 9 -7 6 0 10 -5 10 -10 0 -19 65 -108 88
-121 16 -9 19 -15 10 -21 -10 -6 -8 -8 4 -8 9 0 33 -16 53 -37 19 -20 35 -33
35 -29 0 4 10 -2 22 -14 12 -11 28 -20 35 -20 7 0 13 -4 13 -10 0 -5 12 -10
26 -10 16 0 23 -4 18 -11 -4 -7 1 -9 12 -7 11 2 25 -3 32 -12 8 -8 11 -10 7
-3 -4 9 3 8 21 -2 15 -8 31 -12 36 -9 4 3 8 2 8 -3 0 -4 15 -8 33 -9 17 -1 67
-3 110 -6 42 -2 77 -1 77 4 0 4 5 8 11 8 5 0 8 -3 6 -8 -6 -9 2537 -7 2608 3
28 3 56 7 63 7 6 1 12 5 12 10 0 5 4 7 9 3 5 -3 12 -1 16 5 4 6 11 8 16 5 5
-4 9 -2 9 3 0 6 6 9 13 9 20 -1 77 24 77 35 0 5 4 7 8 4 5 -3 18 4 30 14 12
11 26 20 32 20 5 0 10 4 10 9 0 5 9 12 19 16 11 3 23 15 26 26 4 10 9 17 13
15 10 -5 32 20 25 28 -4 3 -1 6 6 6 14 0 42 25 36 32 -2 2 7 17 20 32 14 16
25 35 25 43 0 7 4 13 10 13 5 0 9 6 7 12 -1 7 3 12 9 11 7 -1 9 8 6 22 -3 18
0 25 10 25 10 0 14 8 12 25 -1 14 3 31 9 38 7 6 13 30 15 51 1 22 8 44 15 48
9 6 9 8 0 8 -7 0 -10 7 -6 16 9 23 10 2722 1 2757 -4 17 -3 27 5 27 6 0 2 7
-9 15 -19 15 -19 15 1 8 17 -6 18 -4 8 9 -7 8 -10 18 -6 21 3 4 1 7 -5 7 -7 0
-12 5 -12 11 0 5 5 7 11 4 7 -5 8 -1 1 11 -12 24 -53 145 -54 161 -1 7 -5 10
-10 7 -4 -3 -8 4 -8 16 0 12 -5 18 -10 15 -6 -3 -10 1 -10 10 0 9 -9 25 -20
37 -10 12 -17 26 -13 31 3 6 1 7 -4 4 -6 -4 -17 1 -24 10 -12 14 -12 16 1 9 9
-4 8 -2 -2 7 -10 8 -14 17 -10 21 4 4 3 7 -3 6 -25 -5 -37 1 -31 16 3 8 2 12
-4 9 -6 -3 -10 -1 -10 4 0 6 -6 11 -13 11 -7 0 -20 8 -29 18 -26 27 -40 37
-75 52 -17 8 -30 17 -27 21 2 4 -4 6 -13 5 -10 -2 -21 2 -25 7 -6 10 -21 15
-60 19 -10 1 -18 5 -18 8 0 4 -6 8 -12 10 -21 5 -2854 11 -2859 6z m202 -170
c6 3 53 6 105 6 62 1 94 4 95 12 0 6 4 2 9 -9 5 -11 9 -15 9 -8 1 6 10 9 21 6
13 -3 20 0 21 8 0 8 4 5 9 -6 5 -11 9 -15 9 -8 1 6 10 9 21 6 12 -3 20 0 20 8
0 8 6 5 15 -7 8 -10 15 -14 15 -7 0 6 9 9 22 5 16 -4 19 -2 13 9 -8 12 -6 12
8 1 9 -8 21 -11 27 -7 5 3 10 0 11 -7 0 -7 4 -4 9 7 5 11 9 14 9 8 1 -10 27
-12 101 -11 55 1 102 -1 106 -5 4 -4 13 1 21 11 8 9 11 11 7 3 -5 -11 -3 -13
9 -8 10 4 17 1 17 -6 0 -7 3 -8 8 -2 4 6 16 10 27 10 11 0 23 -4 27 -10 5 -7
8 -7 8 0 0 6 11 10 25 10 14 0 25 -4 25 -10 0 -7 3 -7 8 0 4 6 16 10 27 10 11
0 23 -4 27 -10 5 -6 8 -5 8 2 0 7 7 10 16 6 9 -3 20 0 25 8 7 11 9 10 9 -4 0
-10 5 -15 11 -12 5 4 53 7 105 7 62 1 94 4 95 12 0 6 4 2 9 -9 5 -11 9 -15 9
-8 1 6 10 9 21 6 13 -3 20 0 21 8 0 8 4 5 9 -6 5 -11 9 -15 9 -8 1 6 10 9 21
6 12 -3 20 0 20 8 0 8 6 5 15 -7 8 -10 15 -14 15 -7 0 6 9 9 22 5 16 -4 19 -2
13 9 -8 12 -6 12 8 1 9 -8 21 -11 27 -7 5 3 10 0 11 -7 0 -7 4 -4 9 7 5 11 9
14 9 8 1 -10 27 -12 101 -11 55 1 102 -1 106 -5 4 -4 13 1 21 11 8 9 11 11 7
3 -5 -11 -3 -13 9 -8 10 4 17 1 17 -6 0 -7 3 -8 8 -2 4 6 16 10 27 10 11 0 23
-4 27 -10 5 -7 8 -7 8 0 0 6 11 10 25 10 14 0 25 -4 25 -10 0 -7 3 -7 8 0 4 6
16 10 27 10 11 0 23 -4 27 -10 5 -6 8 -5 8 2 0 7 7 10 16 6 9 -3 20 0 25 8 7
11 9 10 9 -4 0 -10 5 -15 11 -12 5 4 53 7 105 7 62 1 94 4 95 12 0 6 4 2 9 -9
5 -11 9 -15 9 -8 1 6 10 9 21 6 13 -3 20 0 21 8 0 8 4 5 9 -6 5 -11 9 -15 9
-8 1 6 10 9 21 6 12 -3 20 0 20 8 0 8 6 5 15 -7 8 -10 15 -14 15 -7 0 6 9 9
22 5 16 -4 19 -2 13 9 -8 12 -6 12 8 1 9 -8 21 -11 27 -7 5 3 10 0 11 -7 0 -7
4 -4 9 7 5 11 9 15 9 8 1 -11 16 -12 193 -15 21 0 35 -4 33 -8 -3 -5 7 -7 22
-6 18 2 32 -3 41 -15 7 -10 19 -16 27 -12 9 3 22 0 30 -7 8 -6 20 -8 26 -4 8
4 9 3 5 -4 -4 -7 -2 -12 4 -12 6 0 8 -5 5 -10 -4 -6 -2 -9 3 -8 16 5 92 -62
92 -80 0 -13 2 -14 9 -4 6 10 11 5 21 -17 7 -17 16 -31 21 -31 5 0 9 -9 9 -20
0 -11 7 -23 16 -27 8 -3 13 -12 10 -19 -3 -7 1 -19 8 -26 7 -7 12 -23 11 -36
-1 -12 5 -27 12 -34 11 -9 12 -13 1 -19 -8 -5 -9 -9 -2 -9 7 0 10 -14 8 -35
-1 -19 2 -35 8 -35 6 0 4 -7 -3 -17 -10 -12 -11 -17 -2 -20 8 -3 9 -13 3 -34
-5 -18 -5 -29 1 -29 6 0 7 -6 3 -12 -11 -17 -12 -48 -3 -48 5 0 4 -12 -1 -26
-7 -18 -7 -30 0 -39 5 -6 7 -15 3 -19 -11 -10 -12 -35 -2 -41 4 -3 4 -16 -1
-30 -6 -17 -6 -25 1 -25 6 0 7 -6 3 -12 -11 -17 -12 -48 -3 -48 5 0 4 -12 -1
-26 -7 -18 -7 -30 0 -39 5 -6 7 -15 3 -19 -11 -10 -12 -35 -2 -41 4 -3 4 -16
-1 -30 -6 -17 -6 -25 1 -25 6 0 7 -5 3 -12 -10 -16 -11 -68 -1 -68 5 0 5 -6 1
-12 -11 -17 -12 -48 -3 -48 5 0 4 -12 -1 -26 -7 -18 -7 -30 0 -39 5 -6 7 -15
3 -19 -11 -10 -12 -35 -2 -41 4 -3 4 -16 -1 -30 -6 -17 -6 -25 1 -25 6 0 7 -6
3 -12 -11 -17 -12 -48 -3 -48 5 0 4 -12 -1 -26 -7 -18 -7 -30 0 -39 5 -6 7
-15 3 -19 -11 -10 -12 -35 -2 -41 4 -3 4 -16 -1 -30 -6 -17 -6 -25 1 -25 6 0
7 -6 3 -12 -11 -17 -12 -48 -3 -48 5 0 4 -12 -1 -26 -7 -18 -7 -30 0 -39 5 -6
7 -15 3 -19 -11 -10 -12 -35 -2 -41 4 -3 4 -16 -1 -30 -6 -17 -6 -25 1 -25 6
0 7 -6 3 -12 -11 -17 -12 -48 -3 -48 5 0 4 -12 -1 -26 -7 -18 -7 -30 0 -39 5
-6 7 -15 3 -19 -11 -10 -12 -35 -2 -41 4 -3 4 -16 -1 -30 -6 -17 -6 -25 1 -25
6 0 7 -6 3 -12 -11 -17 -12 -48 -3 -48 5 0 4 -12 -1 -26 -7 -18 -7 -30 0 -39
5 -6 7 -15 3 -19 -11 -10 -12 -35 -2 -41 4 -3 4 -16 -1 -30 -6 -17 -6 -25 1
-25 6 0 7 -5 3 -12 -11 -17 -13 -68 -3 -74 5 -3 6 -11 2 -17 -11 -18 -12 -56
-2 -63 5 -3 6 -11 2 -17 -11 -18 -12 -56 -2 -63 5 -3 6 -11 2 -17 -11 -18 -12
-56 -2 -63 5 -3 6 -11 2 -17 -11 -18 -12 -56 -2 -63 5 -3 6 -11 2 -17 -11 -18
-12 -56 -2 -63 5 -3 6 -11 2 -17 -11 -18 -12 -56 -2 -63 5 -3 6 -11 2 -17 -11
-18 -12 -56 -2 -63 5 -3 6 -11 2 -17 -11 -18 -12 -56 -2 -63 5 -3 6 -11 2 -17
-11 -18 -12 -56 -2 -62 5 -4 5 -13 0 -23 -4 -9 -7 -28 -6 -42 1 -14 -3 -38
-10 -55 -6 -16 -10 -36 -8 -42 3 -7 0 -13 -7 -13 -6 0 -9 -4 -5 -9 3 -5 -4
-25 -15 -43 -11 -18 -24 -43 -30 -56 -9 -22 -116 -133 -135 -141 -6 -2 -27
-14 -47 -27 -20 -13 -50 -25 -67 -26 -16 -1 -28 -5 -25 -9 2 -4 -5 -9 -16 -12
-11 -3 -20 0 -20 6 0 7 -4 6 -10 -3 -5 -8 -12 -11 -16 -7 -4 4 -14 1 -22 -6
-13 -10 -14 -9 -7 3 6 12 5 13 -6 2 -16 -15 -33 -16 -23 0 5 7 3 8 -6 3 -20
-13 -68 -16 -75 -5 -4 6 -12 7 -18 3 -18 -12 -87 -10 -87 2 0 5 -4 3 -10 -5
-5 -8 -12 -11 -16 -7 -4 4 -13 2 -20 -4 -8 -7 -14 -6 -20 2 -5 8 -3 9 6 4 9
-5 11 -4 6 4 -6 9 -11 9 -22 0 -11 -9 -14 -8 -14 2 0 11 -2 11 -10 -1 -9 -13
-11 -13 -20 0 -7 12 -10 12 -10 1 0 -7 -6 -11 -14 -8 -7 3 -18 1 -24 -5 -6 -6
-12 -6 -17 3 -6 8 -4 10 5 4 9 -5 11 -4 6 4 -6 9 -11 9 -22 0 -11 -9 -14 -8
-14 2 0 11 -2 11 -10 -1 -9 -13 -11 -13 -20 0 -7 12 -10 12 -10 1 0 -7 -6 -11
-14 -8 -7 3 -18 1 -24 -5 -6 -6 -12 -6 -17 3 -6 8 -4 10 5 4 9 -5 11 -4 6 4
-6 9 -11 9 -22 0 -11 -9 -14 -8 -14 2 0 11 -2 11 -10 -1 -9 -13 -11 -13 -20 0
-7 12 -10 12 -10 1 0 -7 -6 -11 -14 -8 -7 3 -18 1 -24 -5 -6 -6 -12 -6 -17 3
-6 8 -4 10 5 4 9 -5 11 -4 6 4 -6 9 -11 9 -22 0 -11 -9 -14 -8 -14 2 0 11 -2
11 -10 -1 -9 -13 -11 -13 -20 0 -7 12 -10 12 -10 1 0 -7 -6 -11 -14 -8 -7 3
-18 1 -24 -5 -6 -6 -12 -6 -17 3 -6 8 -4 10 5 4 9 -5 11 -4 6 4 -5 7 -13 8
-24 2 -10 -6 -24 -6 -35 1 -13 7 -17 7 -13 0 4 -6 -2 -10 -14 -9 -11 1 -20 6
-20 12 0 5 -4 3 -10 -5 -5 -8 -12 -11 -16 -7 -4 4 -13 2 -20 -4 -8 -7 -14 -6
-20 2 -5 8 -3 9 6 4 9 -5 11 -4 6 4 -6 9 -11 9 -22 0 -11 -9 -14 -8 -14 2 0
11 -2 11 -10 -1 -9 -13 -11 -13 -20 0 -7 12 -10 12 -10 1 0 -7 -6 -11 -14 -8
-7 3 -18 1 -24 -5 -6 -6 -12 -6 -17 3 -6 8 -4 10 5 4 9 -5 11 -4 6 4 -6 9 -11
9 -22 0 -11 -9 -14 -8 -14 2 0 11 -2 11 -10 -1 -9 -13 -11 -13 -20 0 -7 12
-10 12 -10 1 0 -7 -6 -11 -14 -8 -7 3 -18 1 -24 -5 -6 -6 -12 -6 -17 3 -6 8
-4 10 5 4 9 -5 11 -4 6 4 -6 9 -11 9 -22 0 -11 -9 -14 -8 -14 2 0 11 -2 11
-10 -1 -9 -13 -11 -13 -20 0 -7 12 -10 12 -10 1 0 -7 -6 -11 -14 -8 -7 3 -18
1 -24 -5 -6 -6 -12 -6 -17 3 -6 8 -4 10 5 4 9 -5 11 -4 6 4 -6 9 -11 9 -22 0
-11 -9 -14 -8 -14 2 0 11 -2 11 -10 -1 -9 -13 -11 -13 -20 0 -7 12 -10 12 -10
1 0 -7 -6 -11 -14 -8 -7 3 -18 1 -24 -5 -6 -6 -12 -6 -17 3 -6 8 -4 10 5 4 9
-5 11 -4 6 4 -6 9 -11 9 -22 0 -11 -9 -14 -8 -14 2 0 11 -2 11 -10 -1 -9 -13
-11 -13 -20 0 -7 12 -10 12 -10 1 0 -7 -6 -11 -14 -8 -7 3 -18 1 -24 -5 -6 -6
-12 -6 -17 3 -6 8 -4 10 5 4 9 -5 11 -4 6 4 -6 9 -11 9 -22 0 -11 -9 -14 -8
-14 2 0 11 -2 11 -10 -1 -9 -13 -11 -13 -20 0 -7 12 -10 12 -10 1 0 -7 -6 -11
-14 -8 -7 3 -18 1 -24 -5 -6 -6 -12 -6 -17 3 -6 8 -4 10 5 4 9 -5 11 -4 6 4
-6 9 -11 9 -22 0 -11 -9 -14 -8 -14 2 0 11 -2 11 -10 -1 -9 -13 -11 -13 -20 0
-7 12 -10 12 -10 1 0 -7 -6 -11 -14 -8 -7 3 -18 1 -24 -5 -6 -6 -12 -6 -17 3
-6 8 -4 10 5 4 9 -5 11 -4 6 4 -6 9 -11 9 -22 0 -11 -9 -14 -8 -14 2 0 11 -2
11 -10 -1 -9 -13 -11 -13 -20 0 -7 12 -10 12 -10 1 0 -7 -6 -11 -14 -8 -7 3
-18 1 -24 -5 -6 -6 -12 -6 -17 3 -6 8 -4 10 5 4 9 -5 11 -4 6 4 -6 9 -11 9
-22 0 -11 -9 -14 -8 -14 2 0 11 -2 11 -10 -1 -9 -13 -11 -13 -20 0 -7 12 -10
12 -10 1 0 -7 -6 -11 -14 -8 -7 3 -18 1 -24 -5 -6 -6 -12 -6 -17 3 -6 8 -4 10
5 4 9 -5 11 -4 6 4 -6 9 -11 9 -22 0 -11 -9 -14 -8 -14 2 0 11 -2 11 -10 -1
-9 -13 -11 -13 -20 0 -7 12 -10 12 -10 1 0 -7 -6 -11 -14 -8 -7 3 -18 1 -24
-5 -6 -6 -12 -6 -17 3 -6 8 -4 10 5 4 9 -5 11 -4 6 4 -6 9 -11 9 -22 0 -11 -9
-14 -8 -14 2 0 11 -2 11 -10 -1 -9 -13 -11 -13 -20 0 -7 12 -10 12 -10 1 0 -7
-6 -11 -14 -8 -7 3 -18 1 -24 -5 -6 -6 -12 -6 -17 3 -6 8 -4 10 5 4 9 -5 11
-4 6 4 -6 9 -11 9 -22 0 -11 -9 -14 -8 -14 2 0 11 -2 11 -10 -1 -9 -13 -11
-13 -20 0 -7 12 -10 12 -10 1 0 -7 -6 -11 -14 -8 -7 3 -18 1 -24 -5 -6 -6 -12
-6 -17 3 -6 8 -4 10 5 4 9 -5 11 -4 6 4 -6 9 -11 9 -22 0 -11 -9 -14 -8 -14 2
0 11 -2 11 -10 -1 -9 -13 -11 -13 -20 0 -7 12 -10 12 -10 1 0 -7 -6 -11 -14
-8 -7 3 -18 1 -24 -5 -6 -6 -12 -6 -17 3 -6 8 -4 10 5 4 9 -5 11 -4 6 4 -6 9
-11 9 -22 0 -11 -9 -14 -8 -14 2 0 11 -2 11 -10 -1 -9 -13 -11 -13 -20 0 -7
12 -10 12 -10 1 0 -7 -6 -11 -14 -8 -7 3 -18 1 -24 -5 -6 -6 -12 -6 -17 3 -6
8 -4 10 5 4 9 -5 11 -4 6 4 -4 6 -13 8 -19 4 -21 -13 -57 -14 -57 -2 0 9 -4 9
-14 0 -9 -8 -16 -8 -20 -2 -4 5 -15 8 -26 6 -11 -2 -20 0 -20 5 0 4 -9 6 -20
3 -13 -4 -20 0 -20 9 0 11 -7 14 -25 10 -15 -2 -25 0 -25 7 0 7 -4 10 -10 6
-5 -3 -18 3 -28 13 -10 10 -26 18 -35 16 -9 -1 -16 1 -16 4 3 19 -2 33 -9 28
-4 -3 -25 13 -46 35 -21 21 -35 39 -30 39 5 0 -2 7 -14 16 -12 8 -22 21 -22
28 0 7 -9 22 -20 34 -11 12 -20 24 -20 27 1 29 -1 35 -12 29 -6 -4 -8 -3 -4 4
3 6 3 13 -2 16 -5 3 -8 21 -7 40 1 20 -1 36 -4 36 -4 0 -6 44 -6 98 0 53 -4
103 -9 110 -5 7 -5 12 0 12 5 0 9 45 9 99 0 57 -4 97 -9 93 -5 -3 -5 1 -1 9
11 17 12 50 2 66 -4 6 -4 14 0 16 10 6 9 89 -1 105 -3 6 -3 13 1 15 9 6 9 135
0 144 -4 3 -4 10 0 16 10 16 9 116 -1 110 -5 -4 -6 0 -1 8 11 17 12 50 2 66
-4 6 -4 14 1 16 9 6 8 170 -2 186 -4 6 -4 11 1 11 4 0 8 45 8 99 0 57 -4 97
-9 93 -5 -3 -5 1 -1 9 11 17 12 50 2 66 -4 6 -4 14 0 16 10 6 9 89 -1 105 -3
6 -3 13 1 15 9 6 9 135 0 144 -4 3 -4 10 0 16 10 16 9 116 -1 110 -5 -4 -6 0
-1 8 11 17 12 50 2 66 -4 6 -4 14 1 16 9 6 8 170 -2 186 -4 6 -4 11 1 11 4 0
8 45 8 99 0 57 -4 97 -9 93 -5 -3 -5 1 -1 9 11 17 12 50 2 66 -4 6 -4 14 0 16
10 6 9 89 -1 105 -3 6 -3 13 1 15 10 6 9 130 -1 145 -3 6 -3 13 1 15 5 3 7 34
7 69 -1 34 4 69 10 77 8 11 8 13 -1 7 -9 -5 -11 -2 -7 8 3 9 10 16 16 16 5 0
6 5 3 10 -8 13 64 160 82 167 7 3 13 9 13 15 0 14 27 38 34 31 3 -4 6 -2 6 4
0 5 19 25 42 43 23 19 38 27 33 19 -4 -8 3 -3 18 9 18 17 32 22 49 17 18 -5
20 -4 8 4 -12 8 -9 12 18 17 17 4 32 10 32 15 0 5 5 9 11 9 5 0 8 -4 5 -9 -5
-8 17 -8 34 0 5 2 17 5 35 9 6 1 36 2 68 1 37 0 57 4 58 12 1 7 3 4 6 -6 2 -9
9 -15 14 -11z"/>
<path d="M2001 3421 c-7 -5 -10 -14 -7 -20 4 -6 2 -11 -3 -11 -6 0 -11 5 -11
12 0 6 -3 9 -6 6 -3 -3 1 -16 8 -27 11 -18 11 -23 -2 -31 -10 -7 -11 -10 -2
-10 7 0 11 -11 10 -28 -1 -15 2 -34 7 -41 5 -10 4 -12 -3 -7 -7 4 -12 2 -12
-3 0 -6 6 -11 13 -11 7 0 4 -7 -7 -15 -12 -9 -15 -15 -7 -15 8 0 11 -6 7 -15
-3 -8 0 -15 7 -15 7 0 8 -3 2 -8 -14 -10 -19 -46 -6 -37 14 8 1 -27 -13 -37
-7 -5 -7 -8 2 -8 7 0 11 -11 10 -28 -1 -15 2 -34 7 -41 5 -10 4 -12 -3 -7 -7
4 -12 2 -12 -3 0 -6 6 -11 13 -11 7 0 4 -7 -7 -15 -12 -9 -15 -15 -7 -15 8 0
11 -6 7 -15 -3 -8 0 -15 7 -15 7 0 8 -3 2 -8 -14 -10 -19 -46 -6 -37 14 8 1
-27 -13 -37 -7 -5 -7 -8 2 -8 7 0 11 -11 10 -28 -1 -15 2 -34 7 -41 5 -10 4
-12 -3 -7 -7 4 -12 2 -12 -3 0 -6 6 -11 13 -11 7 0 4 -7 -7 -15 -11 -8 -14
-15 -8 -15 7 0 12 -7 12 -15 0 -8 -6 -15 -12 -15 -9 0 -9 -3 1 -9 8 -5 12 -18
9 -29 -3 -10 -1 -27 5 -37 7 -13 6 -16 -2 -11 -6 4 -11 2 -11 -3 0 -6 6 -11
13 -11 7 0 4 -7 -7 -15 -12 -9 -15 -15 -7 -15 8 0 11 -6 7 -15 -3 -8 0 -15 7
-15 7 0 8 -3 2 -8 -14 -10 -19 -46 -6 -37 14 8 1 -27 -13 -37 -7 -5 -7 -8 2
-8 7 0 11 -11 10 -28 -1 -15 2 -34 7 -41 5 -10 4 -12 -3 -7 -7 4 -12 2 -12 -3
0 -6 6 -11 13 -11 7 0 4 -7 -7 -15 -12 -9 -15 -15 -7 -15 8 0 11 -6 7 -15 -3
-8 0 -15 7 -15 7 0 8 -3 2 -8 -14 -10 -19 -46 -6 -37 14 8 1 -27 -13 -37 -7
-5 -7 -8 2 -8 7 0 11 -11 10 -28 -1 -15 2 -34 7 -41 5 -10 4 -12 -3 -7 -7 4
-12 2 -12 -3 0 -6 6 -11 13 -11 7 0 4 -7 -7 -15 -11 -8 -14 -15 -8 -15 7 0 12
-7 12 -15 0 -8 -6 -15 -12 -15 -9 0 -9 -3 1 -9 8 -5 12 -18 9 -29 -3 -10 -1
-27 5 -37 7 -13 6 -16 -2 -11 -6 4 -11 2 -11 -3 0 -6 6 -11 13 -11 7 0 4 -7
-7 -15 -12 -9 -15 -15 -7 -15 8 0 11 -6 7 -15 -3 -8 0 -15 7 -15 7 0 8 -3 2
-8 -12 -9 -20 -46 -8 -39 5 3 9 -3 9 -14 0 -13 -5 -18 -15 -14 -11 4 -11 2 -2
-8 16 -20 11 -69 -6 -56 -7 6 -17 8 -23 4 -5 -3 -10 -1 -10 4 0 6 -9 11 -20
11 -11 0 -23 6 -26 13 -3 8 -18 13 -34 12 -17 -1 -30 2 -30 8 0 5 -7 7 -15 4
-8 -4 -16 -3 -19 1 -8 14 -219 4 -276 -13 -30 -9 -63 -17 -73 -19 -10 -1 -22
-9 -27 -16 -5 -8 -12 -11 -16 -8 -3 4 -11 3 -18 -2 -61 -50 -76 -61 -76 -54 0
4 -11 -5 -25 -20 -14 -15 -30 -24 -37 -20 -6 4 -8 3 -4 -4 3 -6 2 -13 -4 -17
-6 -4 -8 -11 -5 -16 3 -5 -2 -6 -11 -2 -12 4 -15 3 -10 -5 4 -7 1 -15 -8 -18
-9 -3 -16 -13 -16 -21 0 -8 -4 -11 -10 -8 -5 3 -10 -1 -10 -9 0 -8 -10 -22
-22 -32 -19 -14 -20 -15 -4 -10 20 7 20 7 0 -16 -10 -13 -23 -26 -28 -29 -5
-4 -5 -12 -2 -18 4 -6 2 -11 -4 -11 -6 0 -9 -4 -5 -9 3 -5 1 -12 -4 -15 -8 -5
-25 -75 -21 -85 1 -2 -4 -8 -12 -12 -10 -7 -10 -9 0 -9 10 0 10 -5 2 -20 -6
-10 -10 -23 -9 -27 1 -4 0 -10 -1 -13 -7 -19 -7 -40 1 -40 6 0 6 -8 -1 -19 -5
-11 -7 -22 -2 -25 10 -6 8 -48 -3 -66 -5 -9 -4 -11 3 -6 12 7 14 4 15 -36 1
-13 4 -25 9 -29 4 -3 9 -19 11 -36 2 -18 9 -38 15 -46 7 -8 9 -17 5 -20 -3 -4
-1 -7 5 -7 7 0 12 -7 12 -15 0 -8 5 -15 11 -15 5 0 8 -4 4 -9 -3 -5 -1 -12 5
-16 6 -4 7 -11 4 -17 -4 -6 -3 -9 2 -6 5 3 15 0 22 -8 7 -8 10 -14 6 -14 -3 0
8 -14 24 -32 17 -17 29 -35 26 -39 -3 -5 2 -6 10 -3 11 4 19 -2 25 -17 5 -13
10 -20 10 -14 1 5 8 -1 17 -13 9 -14 22 -21 31 -18 8 3 12 2 10 -2 -6 -9 19
-33 27 -25 3 4 6 0 6 -7 0 -7 3 -11 6 -7 4 3 13 -1 21 -9 8 -8 19 -12 24 -9 5
4 9 1 9 -4 0 -6 3 -10 8 -10 21 4 32 -2 26 -13 -6 -10 -4 -10 8 0 11 9 18 10
23 2 3 -5 17 -10 31 -10 13 0 24 -6 24 -12 0 -10 3 -9 9 1 5 8 11 9 15 3 3 -6
14 -11 24 -11 9 0 40 -1 67 -2 83 -2 97 0 89 14 -5 7 -1 7 10 -2 11 -10 20
-11 24 -5 4 6 19 10 35 9 15 -1 27 1 27 5 0 6 8 8 50 12 11 1 20 6 20 10 0 4
3 7 8 7 18 -3 33 2 28 9 -3 5 1 9 8 9 19 0 86 43 86 54 0 6 4 8 9 4 5 -3 12
-1 16 5 4 6 11 7 17 4 6 -4 8 -2 4 4 -7 12 50 73 60 63 4 -3 4 2 1 12 -5 13
-1 17 16 17 18 0 19 2 7 10 -13 8 -12 10 3 10 18 0 39 38 29 54 -3 5 0 6 6 2
6 -4 16 8 23 28 7 19 16 33 21 30 4 -3 8 0 8 5 0 6 -6 11 -12 11 -8 0 -9 3 -3
8 6 4 17 16 25 26 13 18 13 19 0 11 -13 -8 -13 -7 -1 8 7 9 10 17 6 17 -5 0 0
9 9 19 14 16 15 23 6 41 -9 17 -9 21 0 15 9 -5 10 -1 5 14 -3 11 -3 21 2 21 4
0 7 52 5 115 -1 87 1 115 10 115 10 0 10 2 0 8 -9 7 -12 42 -10 140 2 83 -1
132 -7 132 -7 0 -7 3 0 8 6 4 10 69 10 157 0 88 -4 153 -10 157 -7 5 -7 8 0 8
6 0 10 58 10 155 0 97 -4 155 -10 155 -7 0 -7 3 0 8 6 4 10 69 10 157 0 88 -4
153 -10 157 -7 5 -7 8 0 8 6 0 9 28 7 70 -3 57 -1 70 11 70 9 0 18 6 20 13 4
9 6 9 6 -1 1 -10 6 -10 22 -1 13 7 19 7 15 1 -7 -11 32 -11 51 1 5 3 13 3 17
0 11 -11 60 -10 68 2 5 6 8 6 8 0 0 -11 128 -13 146 -2 6 3 14 3 18 0 11 -11
66 -10 66 1 0 7 3 8 8 1 9 -12 102 -13 121 -1 9 6 12 5 7 -2 -4 -6 1 -10 13
-9 11 0 17 5 15 9 -3 4 -2 8 3 8 9 0 10 617 1 626 -11 10 -108 10 -108 -1 0
-7 -3 -7 -8 1 -9 13 -52 13 -52 -1 0 -5 -4 -4 -8 3 -7 10 -15 10 -36 2 -15 -5
-25 -6 -21 -1 3 6 -4 9 -15 8 -11 -1 -20 -6 -20 -12 0 -6 -3 -7 -8 0 -4 6 -20
10 -37 10 -16 0 -33 -4 -37 -10 -5 -6 -8 -6 -8 1 0 14 -50 13 -50 -1 0 -5 -4
-4 -8 3 -7 10 -15 10 -36 2 -15 -5 -25 -6 -21 -1 3 6 -4 9 -15 8 -11 -1 -20
-6 -20 -12 0 -6 -3 -7 -8 0 -4 6 -20 10 -37 10 -16 0 -33 -4 -37 -10 -5 -6 -8
-6 -8 1 0 14 -50 13 -50 -1 0 -5 -4 -4 -8 3 -7 10 -15 10 -36 2 -15 -5 -25 -6
-21 -1 3 6 -4 9 -15 8 -11 -1 -20 -6 -20 -12 0 -6 -3 -7 -8 0 -4 6 -20 10 -37
10 -16 0 -33 -4 -37 -10 -5 -6 -8 -5 -8 2 0 15 -41 13 -52 -2 -5 -6 -8 -5 -8
3 0 14 -9 15 -29 3z"/>
</g>
</svg>
